<svg width="47.4414" height="6.39987" viewBox="0 0 35.581 4.8" xmlns="http://www.w3.org/2000/svg" xmlns:xlink="http://www.w3.org/1999/xlink" id="Ebene_1" overflow="hidden"><defs></defs><path d="M19.26 2.756C19.334 2.385 19.625 2.141 19.996 2.141 20.376 2.141 20.647 2.391 20.7 2.756L19.26 2.756ZM20.038 4.8C20.632 4.8 21.136 4.553 21.395 4.12L20.688 3.731C20.541 3.937 20.308 4.031 20.049 4.031 19.625 4.031 19.336 3.772 19.26 3.413L21.549 3.413C21.566 3.316 21.578 3.189 21.578 3.06 21.578 2.082 20.904 1.378 19.979 1.378 19.045 1.378 18.359 2.067 18.359 3.083 18.359 4.064 18.989 4.8 20.038 4.8M16.859 4.712 17.763 4.712 17.763 0 16.859 0 16.859 4.712ZM16.403 4.635 16.141 3.875C16.032 3.925 15.908 3.952 15.787 3.952 15.505 3.952 15.316 3.805 15.316 3.46L15.316 2.291 16.102 2.291 16.394 1.467 15.537 1.467 15.316 2.091 15.316 0.646 14.412 0.646 14.412 3.631C14.412 4.344 14.83 4.8 15.587 4.8 15.885 4.8 16.176 4.741 16.403 4.635M12.795 2.93 12.795 4.712 13.699 4.712 13.699 2.771C13.699 1.826 13.145 1.378 12.424 1.378 12.073 1.378 11.758 1.496 11.49 1.735L11.49 0 10.586 0 10.586 4.712 11.49 4.712 11.49 2.5C11.676 2.338 11.908 2.247 12.182 2.247 12.574 2.247 12.795 2.477 12.795 2.93M9.216 4.8C9.528 4.8 9.826 4.723 10.073 4.582L9.746 3.784C9.605 3.89 9.428 3.946 9.24 3.946 8.763 3.946 8.406 3.59 8.406 3.089 8.406 2.594 8.748 2.232 9.231 2.232 9.425 2.232 9.596 2.291 9.734 2.394L10.067 1.596C9.817 1.455 9.522 1.375 9.21 1.375 8.232 1.375 7.493 2.12 7.493 3.089 7.493 4.058 8.238 4.8 9.216 4.8M4.724 2.756C4.798 2.385 5.09 2.141 5.461 2.141 5.841 2.141 6.112 2.391 6.165 2.756L4.724 2.756ZM5.502 4.8C6.097 4.8 6.601 4.553 6.86 4.12L6.153 3.731C6.006 3.937 5.773 4.031 5.514 4.031 5.09 4.031 4.801 3.772 4.724 3.413L7.013 3.413C7.031 3.316 7.042 3.189 7.042 3.06 7.042 2.082 6.368 1.378 5.443 1.378 4.509 1.378 3.823 2.067 3.823 3.083 3.823 4.064 4.453 4.8 5.502 4.8M0.904 3.643 0.904 2.533C1.096 2.344 1.34 2.241 1.632 2.241 2.126 2.241 2.433 2.541 2.433 3.086 2.433 3.634 2.126 3.934 1.632 3.934 1.34 3.934 1.096 3.831 0.904 3.643M1.888 4.797C2.777 4.797 3.346 4.073 3.346 3.086 3.346 2.103 2.777 1.378 1.888 1.378 1.511 1.378 1.181 1.508 0.904 1.77L0.904 0 1.11022e-16 0 1.11022e-16 4.712 0.677 4.712 0.813 4.314C1.107 4.638 1.47 4.797 1.888 4.797M22.32 4.704C22.236 4.658 22.17 4.594 22.123 4.511 22.076 4.429 22.052 4.335 22.052 4.231 22.052 4.125 22.076 4.03 22.123 3.946 22.17 3.863 22.236 3.797 22.32 3.75 22.405 3.703 22.501 3.679 22.61 3.679 22.716 3.679 22.811 3.703 22.896 3.75 22.98 3.797 23.047 3.863 23.095 3.946 23.143 4.03 23.167 4.125 23.167 4.231 23.167 4.335 23.143 4.429 23.095 4.511 23.047 4.594 22.98 4.658 22.896 4.704 22.811 4.75 22.715 4.773 22.606 4.773 22.5 4.773 22.405 4.75 22.32 4.704M24.389 4.574C24.127 4.424 23.92 4.218 23.769 3.957 23.617 3.695 23.542 3.405 23.542 3.087 23.542 2.768 23.617 2.478 23.767 2.215 23.918 1.953 24.124 1.747 24.387 1.596 24.649 1.446 24.941 1.371 25.261 1.371 25.416 1.371 25.566 1.39 25.711 1.428 25.855 1.466 25.991 1.521 26.119 1.592L25.786 2.391C25.641 2.283 25.472 2.229 25.282 2.229 25.122 2.229 24.98 2.266 24.856 2.339 24.731 2.413 24.633 2.515 24.562 2.646 24.491 2.777 24.456 2.924 24.456 3.087 24.456 3.252 24.492 3.399 24.565 3.529 24.638 3.659 24.738 3.761 24.864 3.834 24.991 3.908 25.133 3.945 25.291 3.945 25.385 3.945 25.475 3.931 25.562 3.904 25.648 3.876 25.727 3.836 25.798 3.783L26.125 4.582C26.001 4.653 25.866 4.707 25.72 4.744 25.573 4.781 25.422 4.8 25.267 4.8 24.944 4.8 24.652 4.725 24.389 4.574M27.197 4.574C26.934 4.424 26.726 4.218 26.575 3.957 26.423 3.695 26.348 3.405 26.348 3.087 26.348 2.768 26.423 2.478 26.575 2.217 26.726 1.955 26.934 1.75 27.197 1.599 27.461 1.449 27.753 1.374 28.073 1.374 28.394 1.374 28.685 1.449 28.948 1.599 29.21 1.75 29.417 1.955 29.568 2.217 29.72 2.478 29.796 2.768 29.796 3.087 29.796 3.405 29.72 3.695 29.568 3.957 29.417 4.218 29.21 4.424 28.948 4.574 28.685 4.725 28.394 4.8 28.073 4.8 27.753 4.8 27.461 4.725 27.197 4.574M28.492 3.836C28.614 3.763 28.709 3.661 28.778 3.531 28.847 3.4 28.881 3.252 28.881 3.087 28.881 2.922 28.847 2.774 28.778 2.643 28.709 2.512 28.614 2.411 28.492 2.338 28.37 2.265 28.23 2.229 28.073 2.229 27.916 2.229 27.776 2.265 27.653 2.338 27.53 2.411 27.434 2.512 27.365 2.642 27.296 2.771 27.262 2.92 27.262 3.087 27.262 3.254 27.296 3.402 27.365 3.532 27.434 3.662 27.53 3.763 27.653 3.836 27.776 3.909 27.916 3.945 28.073 3.945 28.23 3.945 28.37 3.909 28.492 3.836M30.369 1.462 31.274 1.462 31.274 1.857C31.274 1.879 31.282 1.896 31.297 1.909 31.311 1.922 31.329 1.926 31.348 1.923 31.368 1.921 31.384 1.91 31.396 1.892L31.655 1.462C31.814 1.401 31.986 1.371 32.171 1.371 32.405 1.371 32.614 1.417 32.798 1.509 32.982 1.602 33.127 1.739 33.233 1.922 33.245 1.942 33.264 1.953 33.291 1.954 33.317 1.956 33.336 1.946 33.348 1.922L33.546 1.595C33.656 1.52 33.777 1.464 33.908 1.427 34.04 1.389 34.179 1.371 34.324 1.371 34.568 1.371 34.785 1.421 34.973 1.522 35.162 1.624 35.31 1.777 35.419 1.981 35.527 2.185 35.581 2.437 35.581 2.736L35.581 4.712 34.675 4.712 34.675 2.895C34.675 2.681 34.625 2.518 34.525 2.407 34.425 2.296 34.28 2.24 34.091 2.24 33.969 2.24 33.851 2.264 33.736 2.311 33.621 2.358 33.514 2.427 33.416 2.518 33.424 2.579 33.428 2.651 33.428 2.736L33.428 4.712 32.522 4.712 32.522 2.895C32.522 2.681 32.472 2.518 32.372 2.407 32.271 2.296 32.127 2.24 31.938 2.24 31.818 2.24 31.702 2.263 31.589 2.308 31.476 2.354 31.371 2.42 31.274 2.509L31.274 4.712 30.369 4.712 30.369 1.462Z" stroke-width="0" fill="#185339"/></svg>