<svg viewBox="0 0 283.465 56.4378" xmlns="http://www.w3.org/2000/svg" xmlns:xlink="http://www.w3.org/1999/xlink" id="Logo" overflow="hidden"><defs></defs><g><path d="M28.2188 0C26.5837 0 24.9837 0.14707 23.4243 0.41383L17.8693 16.5481 45.9005 16.52C46.2167 16.5196 46.4393 16.8307 46.3361 17.1295L32.9413 56.0366C46.2769 53.7884 56.4378 42.1934 56.4378 28.2192 56.4378 12.6338 43.8036 0 28.2188 0" stroke-width="0" fill="#23A96A"/><path d="M10.0318 39.3118 23.4246 0.41392C10.1593 2.72044 0 14.2939 0 28.219 0 43.8036 12.6342 56.4378 28.219 56.4378 29.829 56.4378 31.4054 56.2957 32.9416 56.0367L38.49 39.9206 10.4669 39.9217C10.1508 39.9217 9.92897 39.6106 10.0318 39.3118" stroke-width="0" fill="#075033"/></g><path d="M262.108 31.9124C262.787 28.4932 265.473 26.2409 268.892 26.2409 272.393 26.2409 274.89 28.5475 275.378 31.9124L262.108 31.9124ZM269.272 50.7449C274.754 50.7449 279.394 48.4654 281.782 44.4764L275.269 40.8945C273.913 42.794 271.769 43.6623 269.381 43.6623 265.473 43.6623 262.814 41.2743 262.108 37.9637L283.193 37.9637C283.356 37.0682 283.465 35.9014 283.465 34.7074 283.465 25.6982 277.25 19.2126 268.73 19.2126 260.127 19.2126 253.805 25.5625 253.805 34.9245 253.805 43.9608 259.612 50.7449 269.272 50.7449M239.993 49.9308 248.324 49.9308 248.324 6.51289 239.993 6.51289 239.993 49.9308ZM235.787 49.2253 233.372 42.2241C232.368 42.6854 231.229 42.9297 230.116 42.9297 227.511 42.9297 225.774 41.5728 225.774 38.3979L225.774 27.6248 233.02 27.6248 235.706 20.0267 227.809 20.0267 225.774 25.7796 225.774 12.4646 217.443 12.4646 217.443 39.9718C217.443 46.5388 221.297 50.7449 228.271 50.7449 231.012 50.7449 233.698 50.2022 235.787 49.2253M202.546 33.5134 202.546 49.9308 210.877 49.9308 210.877 32.048C210.877 23.3373 205.776 19.2126 199.127 19.2126 195.898 19.2126 192.994 20.2981 190.525 22.4961L190.525 6.51289 182.194 6.51289 182.194 49.9308 190.525 49.9308 190.525 29.5515C192.235 28.059 194.378 27.2178 196.902 27.2178 200.511 27.2178 202.546 29.3344 202.546 33.5134M169.576 50.7449C172.452 50.7449 175.193 50.0393 177.473 48.7368L174.46 41.3829C173.158 42.3598 171.53 42.8754 169.793 42.8754 165.397 42.8754 162.113 39.5919 162.113 34.9787 162.113 30.4198 165.261 27.0821 169.712 27.0821 171.503 27.0821 173.077 27.6248 174.352 28.5746L177.418 21.2207C175.112 19.9181 172.398 19.1855 169.522 19.1855 160.512 19.1855 153.701 26.0509 153.701 34.9787 153.701 43.9065 160.567 50.7449 169.576 50.7449M128.194 31.9123C128.872 28.4932 131.559 26.2409 134.978 26.2409 138.478 26.2409 140.975 28.5474 141.463 31.9123L128.194 31.9123ZM135.358 50.7449C140.839 50.7449 145.479 48.4654 147.867 44.4764L141.355 40.8944C139.998 42.7939 137.854 43.6623 135.466 43.6623 131.559 43.6623 128.899 41.2743 128.194 37.9637L149.278 37.9637C149.441 37.0682 149.55 35.9014 149.55 34.7074 149.55 25.6982 143.336 19.2126 134.815 19.2126 126.213 19.2126 119.89 25.5625 119.89 34.9245 119.89 43.9608 125.697 50.7449 135.358 50.7449M92.9988 40.0803 92.9988 29.85C94.7627 28.1133 97.015 27.1635 99.7014 27.1635 104.26 27.1635 107.082 29.9314 107.082 34.9516 107.082 39.9989 104.26 42.7668 99.7014 42.7668 97.015 42.7668 94.7627 41.8171 92.9988 40.0803M102.062 50.7177C110.257 50.7177 115.495 44.0422 115.495 34.9516 115.495 25.8881 110.257 19.2126 102.062 19.2126 98.5889 19.2126 95.5496 20.4066 92.9988 22.8217L92.9988 6.51289 84.668 6.51289 84.668 49.9308 90.9093 49.9308 92.1576 46.2674C94.8712 49.2524 98.2089 50.7177 102.062 50.7177" stroke-width="0" fill="#075033"/></svg>